<svg width="93" height="123" viewBox="0 0 93 123" fill="none" xmlns="http://www.w3.org/2000/svg">
<path fill-rule="evenodd" clip-rule="evenodd" d="M8.16037 101.401C2.89037 99.1909 9.31037 95.0509 7.37037 91.9509C6.16037 90.0209 1.57037 89.2809 1.24037 87.2609C1.18037 86.8709 1.26037 86.4509 1.55037 85.9809C3.42037 82.8509 6.39037 80.4709 3.32037 77.8309L0.640366 75.0309C-0.189634 74.1009 -0.219634 73.1309 0.590366 72.1109L4.30037 68.7409C5.26037 67.9409 5.44037 66.6209 4.13037 64.3309L2.32037 61.7709C1.73037 60.8809 1.67037 59.9809 2.41037 59.0909L6.57037 56.7709C8.39037 55.9409 8.93037 54.6009 8.17037 52.7309L6.97037 49.0809C6.71037 47.6809 7.14037 46.6309 8.76037 46.1809L12.0604 45.1809C13.0104 44.8909 13.8804 44.8309 14.4804 43.9909C14.9804 43.2909 15.1404 42.3109 14.9504 41.0409L14.6404 37.9409C14.6104 36.3809 15.5204 35.3909 17.9504 35.2909L19.8804 35.4609C21.2404 35.5809 22.1004 35.8209 23.1104 34.6009C23.6104 34.0009 23.9704 33.1509 24.2204 32.0809L25.0804 28.8809C25.3204 27.6409 26.2404 26.8509 29.1204 27.3609C30.4604 27.7209 32.8104 28.7309 34.0004 28.0609C34.6104 27.7209 35.2104 27.0609 35.8204 26.0309L37.7804 22.6009C38.6604 21.6709 39.8404 21.5109 41.5804 22.7909C42.6404 23.6409 44.3304 25.4209 45.6204 25.3709C46.4104 25.3409 47.2604 24.9209 48.1804 24.1409C48.7504 23.4809 49.3604 22.8509 50.0104 22.2509C52.0804 20.3509 53.6804 20.7509 55.4004 23.1709L56.9004 25.3409C57.7504 26.6309 59.0904 27.0509 61.3204 25.9009L63.6404 24.8009C68.6404 22.8109 66.9604 29.1409 68.9104 31.3709C69.6204 32.1809 70.6004 32.4409 71.7504 32.3209L74.1804 31.9209C77.1004 31.4209 78.3504 32.6109 77.9404 35.4609C77.7804 37.0909 77.2904 38.9709 78.4304 40.3209C78.9204 40.9009 79.6104 41.2309 80.4304 41.4009L83.5204 42.1009C86.0704 42.9609 86.4004 44.5609 85.1604 46.7009C84.7304 48.2909 83.9504 49.9809 84.8004 51.5509C85.1104 52.1209 85.6104 52.6509 86.3104 53.1309L88.9404 54.5909C93.1004 57.7009 86.2604 61.1009 87.2104 63.8809C87.4204 64.4809 87.8804 65.1209 88.5904 65.7709L91.1904 68.2109C92.9204 69.7209 92.5704 71.2309 90.0504 72.7509L87.9104 74.5209C87.2404 75.1409 86.8804 75.7809 86.8104 76.4409C86.6704 77.7909 88.3404 79.9209 89.0904 81.1109C90.6704 83.0309 90.3004 84.6309 87.5904 85.8509C86.5604 86.4909 83.8404 87.8509 83.4904 88.9209C83.1404 89.9609 84.4804 92.8309 84.8904 93.9809C85.5404 95.8309 84.7604 96.9709 83.0704 97.6509L79.5104 98.5109C77.6104 99.3909 77.1204 100.641 77.2004 102.051L77.4104 105.511C77.2104 107.011 76.5004 108.071 74.6504 108.181L70.9804 108.031C69.0804 108.421 68.2304 109.381 67.9604 110.851L66.9004 114.801C66.3704 116.241 65.5104 116.621 63.7004 116.591C53.8004 112.401 57.8504 121.831 52.6504 121.681C51.7904 121.651 50.8704 121.201 49.9004 120.381L47.3404 118.641C46.8104 118.381 46.3304 118.331 45.8704 118.411C44.5504 118.671 42.1804 121.141 41.1204 122.111C37.8004 125.281 35.7404 117.591 33.3204 117.061C32.0704 116.781 29.1904 118.451 27.9504 119.041C23.3504 120.641 24.8804 113.431 22.3204 112.071C20.2404 110.971 17.9304 112.541 15.7404 111.731C13.1304 110.761 14.0304 107.031 14.1104 104.671C13.6004 101.531 10.3404 102.311 8.16037 101.401Z" fill="white"/>
<path fill-rule="evenodd" clip-rule="evenodd" d="M58.1304 26.441C57.7604 26.311 57.4404 26.081 57.1804 25.751C56.3604 24.731 56.6804 24.261 57.0204 23.111C59.0904 16.061 63.5304 9.92095 68.4204 3.94095C70.4604 1.44095 73.6204 -2.36905 76.4004 1.98095L79.9204 6.46095C81.5504 8.44095 80.6204 10.021 77.4604 11.261C70.1604 15.361 65.0904 20.111 61.6104 25.341C60.6104 26.201 59.5604 26.951 58.1304 26.441Z" fill="#F44336"/>
<path d="M28.4203 98.6209C26.8403 98.0209 27.4303 95.5809 27.5103 94.0309C27.2403 91.9909 25.2403 92.5509 23.9203 91.9809C20.7303 90.6009 24.7003 87.8209 23.5603 85.8209C22.8403 84.5709 20.0503 84.1509 19.8803 82.8309C19.8503 82.5809 19.9003 82.3009 20.0903 81.9909C21.2703 79.9209 23.1103 78.3409 21.2703 76.6509L19.6703 74.8609C19.1803 74.2709 19.1703 73.6309 19.6803 72.9509L21.9903 70.7109C22.5903 70.1809 22.7103 69.3209 21.9403 67.8309L20.8703 66.1809C20.5203 65.6009 20.4903 65.0209 20.9603 64.4309L23.5203 62.8709C24.6403 62.3109 24.9803 61.4309 24.5503 60.2109L23.8603 57.8409C23.7203 56.9309 23.9903 56.2409 24.9903 55.9209L27.0203 55.2309C27.6003 55.0309 28.1303 54.9809 28.5103 54.4209C28.8303 53.9509 28.9403 53.3109 28.8303 52.4909L28.6803 50.4709C28.6803 49.4609 29.2503 48.7909 30.7303 48.7009L31.9103 48.7909C32.7403 48.8509 33.2603 49.0009 33.8903 48.1909C34.2003 47.7909 34.4303 47.2309 34.6003 46.5409L35.1603 44.4409C35.3203 43.6309 35.8903 43.1009 37.6503 43.4009C38.4703 43.6209 39.8903 44.2509 40.6203 43.8009C40.9903 43.5709 41.3703 43.1309 41.7603 42.4609L43.0003 40.2009C43.5503 39.5809 44.2703 39.4609 45.3203 40.2809" fill="#F44336"/>
<path d="M28.4203 98.6209C26.8403 98.0209 27.4303 95.5809 27.5103 94.0309C27.2403 91.9909 25.2403 92.5509 23.9203 91.9809C20.7303 90.6009 24.7003 87.8209 23.5603 85.8209C22.8403 84.5709 20.0503 84.1509 19.8803 82.8309C19.8503 82.5809 19.9003 82.3009 20.0903 81.9909C21.2703 79.9209 23.1103 78.3409 21.2703 76.6509L19.6703 74.8609C19.1803 74.2709 19.1703 73.6309 19.6803 72.9509L21.9903 70.7109C22.5903 70.1809 22.7103 69.3209 21.9403 67.8309L20.8703 66.1809C20.5203 65.6009 20.4903 65.0209 20.9603 64.4309L23.5203 62.8709C24.6403 62.3109 24.9803 61.4309 24.5503 60.2109L23.8603 57.8409C23.7203 56.9309 23.9903 56.2409 24.9903 55.9209L27.0203 55.2309C27.6003 55.0309 28.1303 54.9809 28.5103 54.4209C28.8303 53.9509 28.9403 53.3109 28.8303 52.4909L28.6803 50.4709C28.6803 49.4609 29.2503 48.7909 30.7303 48.7009L31.9103 48.7909C32.7403 48.8509 33.2603 49.0009 33.8903 48.1909C34.2003 47.7909 34.4303 47.2309 34.6003 46.5409L35.1603 44.4409C35.3203 43.6309 35.8903 43.1009 37.6503 43.4009C38.4703 43.6209 39.8903 44.2509 40.6203 43.8009C40.9903 43.5709 41.3703 43.1309 41.7603 42.4609L43.0003 40.2009C43.5503 39.5809 44.2703 39.4609 45.3203 40.2809" stroke="#F44336" stroke-width="3.4399" stroke-miterlimit="2.6131" stroke-linecap="round" stroke-linejoin="round"/>
<path d="M46.4705 103.451C48.1405 103.721 48.8505 101.311 49.5505 99.931C50.8005 98.301 52.2605 99.781 53.6905 99.951C57.1405 100.351 55.0905 95.961 57.0805 94.801C58.3205 94.081 60.9505 95.111 61.7605 94.061C61.9205 93.861 62.0105 93.591 62.0005 93.231C62.0105 90.851 61.2105 88.561 63.6505 88.011L65.9305 87.261C66.6505 86.991 66.9805 86.451 66.8805 85.611L66.0105 82.521C65.7605 81.761 66.0805 80.951 67.4905 80.051L69.2405 79.161C69.8305 78.841 70.1405 78.351 70.0405 77.601L68.6005 74.971C67.9105 73.931 68.0505 72.991 69.0405 72.161L70.8205 70.461C71.4005 69.741 71.5105 69.011 70.8005 68.241L69.3905 66.631C68.9805 66.171 68.5505 65.851 68.5005 65.191C68.4605 64.631 68.6805 64.021 69.1905 63.361L70.3305 61.691C70.8405 60.811 70.6805 59.951 69.4405 59.131L68.3805 58.621C67.6305 58.261 67.1105 58.121 66.9605 57.111C66.8905 56.611 66.9705 56.011 67.1805 55.321L67.7405 53.221C68.0105 52.441 67.7705 51.701 66.1105 51.081C65.2905 50.861 63.7505 50.701 63.3405 49.941C63.1305 49.551 63.0205 48.981 63.0305 48.211L63.0905 45.641" fill="#F44336"/>
<path d="M46.4705 103.451C48.1405 103.721 48.8505 101.311 49.5505 99.931C50.8005 98.301 52.2605 99.781 53.6905 99.951C57.1405 100.351 55.0905 95.961 57.0805 94.801C58.3205 94.081 60.9505 95.111 61.7605 94.061C61.9205 93.861 62.0105 93.591 62.0005 93.231C62.0105 90.851 61.2105 88.561 63.6505 88.011L65.9305 87.261C66.6505 86.991 66.9805 86.451 66.8805 85.611L66.0105 82.521C65.7605 81.761 66.0805 80.951 67.4905 80.051L69.2405 79.161C69.8305 78.841 70.1405 78.351 70.0405 77.601L68.6005 74.971C67.9105 73.931 68.0505 72.991 69.0405 72.161L70.8205 70.461C71.4005 69.741 71.5105 69.011 70.8005 68.241L69.3905 66.631C68.9805 66.171 68.5505 65.851 68.5005 65.191C68.4605 64.631 68.6805 64.021 69.1905 63.361L70.3305 61.691C70.8405 60.811 70.6805 59.951 69.4405 59.131L68.3805 58.621C67.6305 58.261 67.1105 58.121 66.9605 57.111C66.8905 56.611 66.9705 56.011 67.1805 55.321L67.7405 53.221C68.0105 52.441 67.7705 51.701 66.1105 51.081C65.2905 50.861 63.7505 50.701 63.3405 49.941C63.1305 49.551 63.0205 48.981 63.0305 48.211L63.0905 45.641" stroke="#F44336" stroke-width="3.4399" stroke-miterlimit="2.6131" stroke-linecap="round" stroke-linejoin="round"/>
</svg>
